<svg
    xmlns="http://www.w3.org/2000/svg"
    width="100"
    height="100"
    viewBox="0 0 100 100"
    fill="none"
>
    <path
        d="M20.7832 47.5308C20.7833 46.9716 20.8936 46.418 21.1079 45.9016C21.3221 45.3853 21.636 44.9166 22.0316 44.5221C22.4273 44.1277 22.8967 43.8154 23.4132 43.6033C23.9296 43.3911 24.4827 43.2832 25.0409 43.2859L32.1001 43.3089C33.2255 43.3089 34.305 43.7569 35.1008 44.5541C35.8967 45.3514 36.3438 46.4328 36.3438 47.5604V74.3008C37.1385 74.0645 38.1592 73.8126 39.276 73.5491C40.0518 73.3666 40.7431 72.9268 41.238 72.301C41.7328 71.6753 42.0021 70.9004 42.0019 70.102V36.9317C42.0019 35.8041 42.4489 34.7226 43.2448 33.9252C44.0406 33.1277 45.12 32.6797 46.2456 32.6794H53.3188C54.4443 32.6797 55.5238 33.1277 56.3196 33.9252C57.1154 34.7226 57.5626 35.8041 57.5626 36.9317V67.717C57.5626 67.717 59.3335 66.9991 61.0585 66.2696C61.6992 65.9982 62.246 65.5437 62.6307 64.9628C63.0154 64.3821 63.2208 63.7006 63.2214 63.0036V26.3031C63.2214 25.1757 63.6684 24.0943 64.4641 23.2971C65.2597 22.4998 66.3389 22.0519 67.4643 22.0516H74.5375C75.6631 22.0516 76.7424 22.4995 77.5383 23.2968C78.3341 24.0941 78.7813 25.1755 78.7813 26.3031V56.5252C84.9135 52.0728 91.1279 46.7182 96.0595 40.2792C96.7753 39.3446 97.2486 38.2471 97.4376 37.0847C97.6267 35.9223 97.5256 34.731 97.1434 33.6172C94.8605 27.0373 91.2323 21.0072 86.4897 15.9128C81.7471 10.8186 75.9953 6.77214 69.6023 4.03263C63.2092 1.29312 56.3157 -0.0791932 49.3628 0.00352926C42.4099 0.0862509 35.5509 1.62218 29.2246 4.51302C22.8983 7.40387 17.244 11.586 12.6237 16.7917C8.00329 21.9973 4.51857 28.1121 2.3925 34.7445C0.266432 41.3768 -0.454163 48.3808 0.276822 55.3082C1.00781 62.2356 3.17429 68.9338 6.6376 74.9743C7.24092 76.0162 8.12853 76.8641 9.19612 77.4183C10.2637 77.9724 11.467 78.2099 12.6647 78.1028C14.0025 77.985 15.6683 77.8179 17.6488 77.5849C18.511 77.4869 19.307 77.0745 19.8851 76.4263C20.4633 75.7781 20.7833 74.9395 20.784 74.0703L20.7832 47.5308Z"
        fill="#21325B"
    />
    <path
        d="M20.6288 90.42C28.0843 95.8537 36.8952 99.1155 46.0864 99.8441C55.2776 100.572 64.4909 98.7393 72.7067 94.5471C80.9225 90.3549 87.8202 83.9678 92.6375 76.0921C97.4541 68.2163 100.002 59.1589 100 49.9221C100 48.7695 99.9466 47.6293 99.8702 46.4956C81.6107 73.7778 47.8967 86.5324 20.6303 90.4158"
        fill="#979695"
    />
</svg>