<svg xmlns="http://www.w3.org/2000/svg" width="192" height="151" viewBox="0 0 192 151" fill="none">
    <path
        d="M0.00730031 148.329C-0.08699 149.43 0.728735 150.398 1.82927 150.493C2.92981 150.587 3.89841 149.771 3.9927 148.671L0.00730031 148.329ZM41.5 55L42.2617 53.1507L42.2617 53.1507L41.5 55ZM60 112L60.7472 110.145L60.7472 110.145L60 112ZM104 26.5L103.226 24.656L103.226 24.656L104 26.5ZM117.5 85.5L116.879 83.599L116.879 83.599L117.5 85.5ZM191.903 2.61672C192.243 1.56598 191.667 0.43807 190.617 0.0974621C189.566 -0.243146 188.438 0.332532 188.097 1.38328L191.903 2.61672ZM2 148.5C3.9927 148.671 3.99271 148.671 3.99275 148.67C3.99282 148.669 3.99289 148.668 3.99302 148.667C3.99326 148.664 3.99365 148.66 3.99417 148.654C3.99522 148.642 3.99682 148.623 3.99899 148.599C4.00334 148.549 4.00994 148.475 4.01885 148.376C4.03667 148.179 4.06372 147.886 4.10037 147.503C4.17366 146.736 4.28534 145.611 4.43838 144.181C4.74448 141.323 5.2159 137.249 5.87636 132.399C7.19827 122.691 9.27327 109.903 12.2873 97.5249C15.3131 85.0985 19.2403 73.2803 24.1908 65.3864C26.6664 61.439 29.2901 58.6496 32.0178 57.1816C34.6475 55.7664 37.4887 55.5107 40.7383 56.8493L42.2617 53.1507C37.9073 51.3571 33.8112 51.6741 30.1223 53.6593C26.5314 55.5917 23.4554 59.0303 20.8021 63.2612C15.4948 71.724 11.4481 84.0639 8.40084 96.5786C5.34185 109.141 3.2448 122.078 1.91294 131.859C1.24651 136.753 0.770602 140.865 0.461108 143.756C0.306346 145.201 0.193152 146.341 0.118525 147.122C0.081211 147.512 0.0535353 147.813 0.0351235 148.016C0.0259175 148.118 0.0190272 148.195 0.0144057 148.248C0.012095 148.274 0.0103514 148.294 0.0091691 148.308C0.00857796 148.314 0.00812715 148.32 0.00781593 148.323C0.00766035 148.325 0.00753136 148.327 0.0074537 148.327C0.00735962 148.329 0.00730031 148.329 2 148.5ZM40.7383 56.8493C44.2878 58.3114 46.2933 61.573 47.4068 66.4221C48.5273 71.3015 48.6294 77.2978 48.729 83.5839C48.8265 89.7445 48.9214 96.1963 50.1637 101.555C51.4136 106.947 53.9398 111.715 59.2528 113.855L60.7472 110.145C57.1902 108.712 55.1794 105.48 54.0604 100.652C52.9338 95.7923 52.828 89.8063 52.7285 83.5205C52.6309 77.3602 52.5395 70.9014 51.3053 65.5268C50.0642 60.122 47.5538 55.3306 42.2617 53.1507L40.7383 56.8493ZM59.2528 113.855C63.3377 115.5 66.9633 115.591 70.0928 114.077C73.1483 112.599 75.3647 109.762 77.0626 106.331C80.4305 99.5272 82.2646 89.2996 84.0399 78.7348C85.842 68.0101 87.6027 56.7708 90.728 47.4199C93.8723 38.0121 98.2143 31.0992 104.774 28.344L103.226 24.656C94.9959 28.1125 90.1631 36.4912 86.9342 46.152C83.6863 55.8699 81.8756 67.4764 80.0952 78.072C78.2878 88.8275 76.528 98.3946 73.4777 104.557C71.9666 107.61 70.2678 109.549 68.3505 110.477C66.5071 111.369 64.1021 111.496 60.7472 110.145L59.2528 113.855ZM104.774 28.344C107.678 27.1247 108.911 27.5145 109.458 27.9433C110.16 28.4937 110.808 29.8647 111.005 32.6265C111.389 38.0215 109.927 46.2184 108.405 54.9049C106.923 63.3634 105.385 72.2914 105.945 78.5684C106.223 81.6745 107.049 84.6633 109.177 86.4916C111.448 88.4426 114.555 88.5669 118.121 87.401L116.879 83.599C113.945 84.5581 112.536 84.1043 111.784 83.4576C110.888 82.6882 110.184 81.0599 109.93 78.2129C109.427 72.5836 110.827 64.2616 112.345 55.5951C113.823 47.1566 115.423 38.3535 114.995 32.3423C114.785 29.401 114.059 26.4673 111.925 24.795C109.636 23.0012 106.572 23.2503 103.226 24.656L104.774 28.344ZM118.121 87.401C144.187 78.8795 162.632 57.5348 174.502 38.5814C180.454 29.077 184.797 20.1032 187.654 13.5051C189.082 10.2044 190.141 7.494 190.844 5.60351C191.195 4.65816 191.458 3.9175 191.634 3.41022C191.722 3.15657 191.788 2.96124 191.833 2.8278C191.855 2.76108 191.872 2.70984 191.884 2.67451C191.889 2.65684 191.894 2.64316 191.897 2.63351C191.899 2.62869 191.9 2.62487 191.901 2.62207C191.901 2.62067 191.902 2.61933 191.902 2.61863C191.902 2.61755 191.903 2.61672 190 2C188.097 1.38328 188.098 1.38296 188.098 1.3829C188.097 1.38321 188.097 1.3834 188.097 1.38404C188.097 1.38531 188.096 1.38759 188.095 1.39087C188.093 1.39744 188.089 1.40803 188.085 1.42258C188.075 1.45167 188.06 1.49662 188.04 1.55696C187.999 1.67765 187.938 1.85993 187.854 2.10022C187.688 2.58084 187.435 3.29342 187.095 4.20944C186.413 6.04169 185.381 8.68657 183.983 11.9161C181.185 18.3783 176.932 27.1645 171.112 36.4583C159.436 55.1015 141.631 75.5068 116.879 83.599L118.121 87.401Z"
        fill="#F20079" />
</svg>