<svg xmlns="http://www.w3.org/2000/svg" width="536" height="536" viewBox="0 0 536 536" fill="none">
    <rect width="536" height="536" fill="#222631" />
    <path
        d="M284.383 122.224L387.237 181.606C397.066 187.281 403.12 197.768 403.12 209.118V327.882C403.12 339.231 397.066 349.719 387.237 355.393L284.383 414.775C274.555 420.45 262.445 420.45 252.617 414.775L149.763 355.393C139.935 349.719 133.88 339.231 133.88 327.882V209.118C133.88 197.768 139.935 187.281 149.763 181.606L252.617 122.224C262.445 116.55 274.555 116.55 284.383 122.224Z"
        stroke="#F20079" stroke-width="12.218" />
    <path
        d="M168.674 333.255C164.767 333.255 162.814 331.913 162.814 329.227V208.383C162.814 205.698 164.767 204.355 168.674 204.355H172.375C173.917 204.355 175.151 204.66 176.075 205.271C177.001 205.759 177.772 206.674 178.388 208.017L214.164 289.861C215.603 293.035 216.939 296.88 218.173 301.396L218.944 301.03C218.121 296.758 217.71 292.73 217.71 288.946V208.383C217.71 205.698 219.664 204.355 223.57 204.355H225.42C229.327 204.355 231.28 205.698 231.28 208.383V329.227C231.28 331.913 229.327 333.255 225.42 333.255H222.183C219.304 333.255 217.454 332.34 216.631 330.509L179.931 245.918C178.492 242.744 177.155 238.899 175.921 234.383L175.151 234.749C175.973 239.021 176.384 243.05 176.384 246.833V329.227C176.384 331.913 174.431 333.255 170.524 333.255H168.674Z"
        fill="#F20079" />
    <path
        d="M260.401 333.256C256.495 333.256 254.541 331.913 254.541 329.227V210.214C254.541 208.261 254.85 206.858 255.467 206.003C256.186 205.149 257.266 204.721 258.705 204.721H298.798C300.751 204.721 301.728 206.553 301.728 210.214V213.144C301.728 216.806 300.751 218.637 298.798 218.637H268.42V264.045H296.176C298.13 264.045 299.106 265.876 299.106 269.538V272.467C299.106 276.13 298.13 277.96 296.176 277.96H268.42V329.227C268.42 331.913 266.466 333.256 262.56 333.256H260.401Z"
        fill="#F20079" />
    <path
        d="M341.797 333.256C337.891 333.256 335.938 331.913 335.938 329.227V218.637H313.733C311.78 218.637 310.803 216.806 310.803 213.144V210.214C310.803 206.553 311.78 204.721 313.733 204.721H371.713C372.844 204.721 373.615 205.149 374.026 206.003C374.54 206.858 374.797 208.261 374.797 210.214V213.144C374.797 215.097 374.54 216.501 374.026 217.355C373.615 218.21 372.844 218.637 371.713 218.637H349.816V329.227C349.816 331.913 347.863 333.256 343.956 333.256H341.797Z"
        fill="#F20079" />
</svg>